<svg width="140" height="53" viewBox="0 0 140 53" fill="none" xmlns="http://www.w3.org/2000/svg">
<g filter="url(#filter0_d_857_105)">
<rect x="1" width="138" height="48" rx="24" fill="#B65A0F"/>
</g>
<path d="M47.6628 21.5078C47.6031 20.9496 47.3517 20.5149 46.9085 20.2038C46.4696 19.8928 45.8986 19.7372 45.1955 19.7372C44.7012 19.7372 44.2772 19.8118 43.9235 19.9609C43.5698 20.1101 43.2992 20.3125 43.1117 20.5682C42.9242 20.8239 42.8283 21.1158 42.824 21.4439C42.824 21.7166 42.8858 21.9531 43.0094 22.1534C43.1372 22.3537 43.3098 22.5241 43.5272 22.6648C43.7445 22.8011 43.9852 22.9162 44.2495 23.0099C44.5137 23.1037 44.78 23.1825 45.0485 23.2464L46.2757 23.5533C46.77 23.6683 47.2452 23.8239 47.7012 24.0199C48.1614 24.2159 48.5726 24.4631 48.9348 24.7614C49.3013 25.0597 49.5911 25.4197 49.8041 25.8416C50.0172 26.2635 50.1237 26.7578 50.1237 27.3246C50.1237 28.0916 49.9277 28.767 49.5357 29.3509C49.1436 29.9304 48.5769 30.3842 47.8354 30.7124C47.0982 31.0362 46.2054 31.1982 45.1571 31.1982C44.1387 31.1982 43.2544 31.0405 42.5044 30.7251C41.7587 30.4098 41.1749 29.9496 40.753 29.3445C40.3354 28.7393 40.1095 28.0021 40.0754 27.1328H42.4085C42.4426 27.5888 42.5833 27.968 42.8304 28.2706C43.0776 28.5732 43.3993 28.799 43.7956 28.9482C44.1962 29.0973 44.6436 29.1719 45.1379 29.1719C45.6536 29.1719 46.1053 29.0952 46.4931 28.9418C46.8851 28.7841 47.1919 28.5668 47.4135 28.2898C47.6351 28.0085 47.748 27.6804 47.7523 27.3054C47.748 26.9645 47.6479 26.6832 47.4519 26.4616C47.2558 26.2358 46.981 26.0483 46.6273 25.8991C46.2779 25.7457 45.8688 25.6094 45.4 25.4901L43.9107 25.1065C42.8325 24.8295 41.9803 24.4098 41.3539 23.8473C40.7317 23.2805 40.4206 22.5284 40.4206 21.5909C40.4206 20.8196 40.6294 20.1442 41.047 19.5646C41.4689 18.9851 42.0421 18.5355 42.7665 18.2159C43.4909 17.892 44.3112 17.7301 45.2274 17.7301C46.1564 17.7301 46.9703 17.892 47.6692 18.2159C48.3723 18.5355 48.9242 18.9808 49.3247 19.5518C49.7253 20.1186 49.932 20.7706 49.9448 21.5078H47.6628ZM52.3826 19.897V17.9091H62.8272V19.897H58.7811V31H56.4288V19.897H52.3826ZM65.6598 31H63.1286L67.7372 17.9091H70.6648L75.2798 31H72.7486L69.2521 20.5938H69.1499L65.6598 31ZM65.7429 25.8672H72.6463V27.772H65.7429V25.8672ZM77.7241 31V17.9091H82.6332C83.6389 17.9091 84.4826 18.0838 85.1644 18.4332C85.8505 18.7827 86.3683 19.2727 86.7177 19.9034C87.0714 20.5298 87.2482 21.2607 87.2482 22.0959C87.2482 22.9354 87.0693 23.6641 86.7113 24.282C86.3576 24.8956 85.8356 25.3707 85.1453 25.7074C84.4549 26.0398 83.6069 26.206 82.6012 26.206H79.1048V24.2372H82.2816C82.8697 24.2372 83.3512 24.1562 83.7262 23.9943C84.1012 23.8281 84.3782 23.5874 84.5572 23.272C84.7404 22.9524 84.832 22.5604 84.832 22.0959C84.832 21.6314 84.7404 21.2351 84.5572 20.907C84.3739 20.5746 84.0948 20.3232 83.7198 20.1527C83.3448 19.978 82.8612 19.8906 82.2688 19.8906H80.0955V31H77.7241ZM84.4869 25.0682L87.7276 31H85.0813L81.8981 25.0682H84.4869ZM89.5758 19.897V17.9091H100.02V19.897H95.9743V31H93.622V19.897H89.5758Z" fill="white"/>
<defs>
<filter id="filter0_d_857_105" x="0" y="0" width="140" height="53" filterUnits="userSpaceOnUse" color-interpolation-filters="sRGB">
<feFlood flood-opacity="0" result="BackgroundImageFix"/>
<feColorMatrix in="SourceAlpha" type="matrix" values="0 0 0 0 0 0 0 0 0 0 0 0 0 0 0 0 0 0 127 0" result="hardAlpha"/>
<feMorphology radius="1" operator="dilate" in="SourceAlpha" result="effect1_dropShadow_857_105"/>
<feOffset dy="4"/>
<feComposite in2="hardAlpha" operator="out"/>
<feColorMatrix type="matrix" values="0 0 0 0 0.552077 0 0 0 0 0.272304 0 0 0 0 0.0355727 0 0 0 1 0"/>
<feBlend mode="normal" in2="BackgroundImageFix" result="effect1_dropShadow_857_105"/>
<feBlend mode="normal" in="SourceGraphic" in2="effect1_dropShadow_857_105" result="shape"/>
</filter>
</defs>
</svg>
