<svg width="242" height="79" viewBox="0 0 242 79" fill="none" xmlns="http://www.w3.org/2000/svg">
<path d="M231.12 68.29C230.49 63.58 236.85 62.5 236.85 59.59C236.85 57.79 235.41 56.77 233.07 56.77C231.21 56.77 229.74 57.58 228.27 59.14L225.81 56.86C227.7 54.64 230.34 53.2 233.55 53.2C237.9 53.2 241.08 55.21 241.08 59.2C241.08 63.61 234.54 64.12 234.99 68.29H231.12ZM233.07 76.27C231.54 76.27 230.43 75.19 230.43 73.63C230.43 72.04 231.57 70.96 233.07 70.96C234.6 70.96 235.71 72.04 235.71 73.63C235.71 75.19 234.6 76.27 233.07 76.27Z" fill="#B65A0F"/>
<path d="M202.14 63.1599H196.44V66.4599H202.14V63.1599ZM200.04 74.6799H209.58C212.04 74.6799 212.49 74.1399 212.82 71.3199C213.69 71.8599 215.25 72.3999 216.24 72.5499C215.64 76.7799 214.44 78.0099 209.82 78.0099H200.04C194.52 78.0099 192.9 76.9299 192.9 72.7299V61.4499C192.24 62.1099 191.58 62.7099 190.95 63.2499C190.32 62.5299 188.85 61.1799 188.04 60.5499C191.25 58.2099 194.25 54.3999 195.87 50.4099L199.56 51.5199C199.11 52.5399 198.6 53.4999 198.03 54.4899H213.87C213.87 54.4899 213.84 55.5399 213.81 55.9899C213.54 65.4099 213.27 68.9199 212.43 70.0899C211.83 70.9899 211.14 71.2899 210.24 71.4399C209.43 71.5899 208.17 71.6199 206.79 71.5599C206.76 70.5399 206.4 69.0699 205.86 68.1699C206.88 68.2599 207.78 68.2899 208.29 68.2599C208.71 68.2899 208.98 68.1699 209.22 67.8099C209.7 67.2099 209.97 64.6599 210.18 57.8499H195.87C195.3 58.6299 194.73 59.3499 194.16 60.0399H205.62V69.6399H196.44V72.6699C196.44 74.4099 196.92 74.6799 200.04 74.6799Z" fill="#B65A0F"/>
<path d="M181.5 70.51V59.26H180.09V70.51H181.5ZM173.4 59.26V70.51H174.72V59.26H173.4ZM178.11 61.45V59.26H176.7V61.45H178.11ZM176.7 68.2V70.51H178.11V68.2H176.7ZM178.11 65.98V63.67H176.7V65.98H178.11ZM170.79 56.74H175.62C175.68 56.05 175.74 55.3 175.77 54.61H170.25V51.91H184.53V54.61H179.1C178.95 55.36 178.74 56.08 178.56 56.74H184.2V73.96H181.5V73.03H173.4V73.99H170.79V56.74ZM159.09 55.78L161.13 56.35C160.98 56.86 160.83 57.37 160.65 57.88C161.28 58.48 161.97 59.23 162.33 59.71L160.92 61.3C160.68 60.88 160.23 60.34 159.78 59.83C159.27 60.79 158.7 61.72 158.1 62.44C157.89 61.99 157.23 60.94 156.81 60.49C157.8 59.26 158.61 57.52 159.09 55.78ZM170.31 63.07L168.78 65.5C167.73 64.6 165.51 63.07 164.1 62.14C162.6 63.67 160.47 65.11 158.55 65.92C158.1 65.23 157.26 64.24 156.66 63.73C158.67 63.1 161.01 61.81 162.39 60.61V55.45H157.47V52.87H162.39V50.62H165.36V52.87H169.86V55.45H165.36V59.89C166.14 58.72 166.71 57.19 167.07 55.72L169.11 56.23C168.96 56.74 168.78 57.28 168.6 57.79C169.35 58.42 170.13 59.23 170.55 59.77L169.11 61.33C168.81 60.91 168.3 60.31 167.76 59.74C167.52 60.22 167.28 60.64 167.04 61C166.68 60.7 165.84 60.19 165.36 59.95V60.34C166.59 60.94 169.5 62.59 170.31 63.07ZM165.69 68.68H162.66C162.33 69.16 162 69.64 161.64 70.06C162.18 70.87 162.75 71.53 163.41 72.07C164.31 71.11 165.09 69.94 165.69 68.68ZM167.52 66.07L169.38 66.91C168.6 69.61 167.34 71.86 165.78 73.69C168.27 74.89 171.33 75.16 174.81 75.16C176.49 75.16 183.21 75.16 185.22 75.1C184.71 75.82 184.14 77.32 183.96 78.22H174.75C170.22 78.22 166.53 77.74 163.56 75.85C162.03 77.05 160.35 78.01 158.55 78.7C158.22 77.98 157.38 76.72 156.81 76.24C158.43 75.67 159.96 74.92 161.28 73.96C160.8 73.39 160.29 72.76 159.84 72.07C159.39 72.49 158.94 72.88 158.46 73.24C158.19 72.61 157.41 71.29 156.93 70.69C157.47 70.3 157.95 69.88 158.43 69.43C158.1 68.62 157.83 67.75 157.53 66.85L159.75 66.01C159.9 66.49 160.08 66.94 160.23 67.36C160.95 66.34 161.55 65.2 162 64.06L164.67 64.75C164.49 65.23 164.28 65.71 164.07 66.16H167.01L167.52 66.07Z" fill="#B65A0F"/>
<path d="M129.12 51.4L132.33 52.09C131.4 56.74 129.78 61.33 127.77 64.27C127.23 63.64 126 62.41 125.28 61.87C127.08 59.38 128.4 55.39 129.12 51.4ZM139.71 74.29L136.59 75.49C136.5 75.07 136.41 74.59 136.29 74.08C129.48 75.49 128.31 75.85 127.56 76.3C127.38 75.61 126.84 73.93 126.48 73.03C127.08 72.82 127.53 72.04 128.07 70.72C128.64 69.46 130.26 64.63 131.04 60.19L134.49 61.03C133.59 64.87 132.3 68.86 130.95 72.13L135.57 71.26C135.09 69.64 134.49 67.9 133.92 66.4L136.8 65.41C138 68.26 139.23 71.98 139.71 74.29ZM133.32 52.39L136.23 51.25C137.85 54.55 139.56 58.81 140.13 61.6L136.92 62.95C136.41 60.22 134.85 55.81 133.32 52.39ZM143.28 68.05V69.67H149.07V68.05H143.28ZM149.07 61.42V59.83H143.28V61.42H149.07ZM149.07 65.56V63.91H143.28V65.56H149.07ZM152.37 72.34H149.04C150.72 73.39 152.91 74.8 153.99 75.82L152.19 78.43C151.02 77.26 148.65 75.58 146.88 74.38L148.38 72.34H143.13L145.8 74.23C144.3 75.91 141.81 77.5 139.59 78.46C139.17 77.74 138.45 76.63 137.85 75.91C139.71 75.1 141.87 73.6 142.98 72.34H140.13V57.16H143.61C143.91 56.5 144.21 55.81 144.45 55.18H138.84V52H153.48V55.18H148.14C147.78 55.87 147.42 56.53 147.03 57.16H152.37V72.34Z" fill="#B65A0F"/>
<path d="M107.07 62.95H101.37V67.75H107.07V62.95ZM110.61 71.17H101.37V73.45H97.89V59.56H110.61V71.17ZM122.16 52.6V56.2H118.71V74.08C118.71 76.24 118.2 77.29 116.79 77.89C115.29 78.49 113.07 78.55 110.01 78.55C109.8 77.5 109.08 75.73 108.54 74.77C110.67 74.89 113.28 74.86 114 74.86C114.69 74.86 114.96 74.65 114.96 74.02V56.2H95.13V52.6H122.16Z" fill="#B65A0F"/>
<path d="M67.92 72.37H72.69V66.49H67.92V72.37ZM72.69 63.4V58.54H67.92V63.4H72.69ZM82.23 55.21H90.66C90.66 55.21 90.66 56.41 90.63 56.83C90.24 70.24 89.91 75.01 88.68 76.6C87.84 77.71 87 78.04 85.8 78.25C84.66 78.4 82.86 78.37 81.09 78.31C81.03 77.32 80.55 75.82 79.92 74.83C81.84 75.01 83.61 75.01 84.39 75.01C84.99 75.01 85.32 74.89 85.71 74.5C86.58 73.54 86.97 69.04 87.3 58.45H80.88C80.1 60.25 79.17 61.9 78.24 63.19C77.76 62.74 76.74 62.05 75.93 61.51V75.52H67.92V77.71H64.68V55.42H68.07C68.46 53.92 68.82 52 68.94 50.59L72.84 51.13C72.33 52.63 71.79 54.13 71.28 55.42H75.93V60.28C77.67 57.76 79.11 54.13 79.98 50.62L83.4 51.4C83.07 52.69 82.68 53.95 82.23 55.21ZM85.68 68.89L82.65 70.75C81.81 68.95 79.95 66.01 78.48 63.82L81.27 62.23C82.77 64.3 84.75 67.15 85.68 68.89Z" fill="#B65A0F"/>
<path d="M44.7 56.7999V59.5299H41.61V53.8299H48.9C48.54 52.9599 48.18 52.0899 47.79 51.3099L51.09 50.3199C51.66 51.4299 52.29 52.7499 52.74 53.8299H59.94V59.4399H56.67V56.7999H54.78V60.8499C54.78 61.6599 54.87 61.9299 55.38 61.9299H57.81C58.35 61.9299 59.22 61.8699 59.67 61.7499C59.76 62.5599 59.82 63.7899 59.97 64.5399C59.46 64.7199 58.62 64.7799 57.87 64.7799H55.26C52.26 64.7799 51.57 63.6699 51.57 60.8199V56.7999H50.07C49.86 61.4199 48.81 64.0899 43.41 65.4399C43.14 64.6899 42.36 63.4599 41.73 62.9199C46.05 61.9599 46.71 60.2499 46.86 56.7999H44.7ZM41.97 67.2099L38.82 68.2299V74.8299C38.82 76.4799 38.52 77.3799 37.62 77.9499C36.72 78.5199 35.43 78.6399 33.48 78.6099C33.39 77.7399 33 76.2699 32.58 75.3099C33.66 75.3699 34.68 75.3699 35.04 75.3399C35.4 75.3399 35.55 75.2199 35.55 74.8299V69.2499L32.7 70.1799L32.01 66.7299C33.03 66.4899 34.23 66.1299 35.55 65.7699V59.5899H32.43V56.2899H35.55V50.6199H38.82V56.2899H41.28V59.5899H38.82V64.8099L41.4 64.0299L41.97 67.2099ZM52.38 74.5599H60.15V77.7699H41.16V74.5599H48.87V69.7599H42.9V66.5499H58.59V69.7599H52.38V74.5599Z" fill="#B65A0F"/>
<path d="M28.5 67.3H18.06C20.16 71.35 23.85 74.08 29.43 75.22C28.59 76 27.51 77.59 27.03 78.61C21.18 77.08 17.55 73.99 15.12 69.28C13.44 73.09 10.02 76.48 3.24001 78.55C2.82001 77.71 1.74001 76.15 0.960007 75.4C7.26001 73.57 10.29 70.6 11.73 67.3H1.53001V63.7H12.75C12.93 62.5 12.99 61.27 12.99 60.1V58.96H7.23001C6.48001 60.46 5.64001 61.81 4.80001 62.86C3.99001 62.29 2.28001 61.36 1.32001 60.94C3.51001 58.63 5.25001 54.76 6.18001 50.92L9.96001 51.73C9.63001 52.96 9.24001 54.16 8.82001 55.33H12.99V50.59H16.74V55.33H25.95V58.96H16.74V60.1C16.74 61.27 16.71 62.5 16.56 63.7H28.5V67.3Z" fill="#B65A0F"/>
<path d="M140.73 25.39H143.4V23.86H140.73V25.39ZM140.73 20.29V21.76H143.4V20.29H140.73ZM149.58 20.29H146.82V21.76H149.58V20.29ZM149.58 25.39V23.86H146.82V25.39H149.58ZM146.82 33.28H153.9V36.1H135.75V33.28H143.4V31.93H137.43V29.23H143.4V27.85H137.64V25.21L135.66 27.91C135.3 27.13 134.58 25.96 133.86 24.88V36.58H130.41V25.81C129.45 28.12 128.31 30.25 127.14 31.75C126.81 30.73 126.06 29.26 125.49 28.36C127.17 26.41 128.82 23.23 129.93 20.32H126.12V16.99H130.41V13.51C129.15 13.75 127.92 13.96 126.75 14.11C126.57 13.3 126.15 12.1 125.76 11.38C129.06 10.81 132.75 9.93996 135.06 8.88996L137.43 11.62C136.35 12.04 135.15 12.43 133.86 12.76V16.99H137.07V20.32H133.86V21.19C134.64 21.85 136.98 24.28 137.64 25.06V17.8H143.4V16.57H136.65V13.81H143.4V12.55C141.45 12.64 139.53 12.7 137.73 12.73C137.67 11.95 137.28 10.78 136.95 10.06C141.87 9.90996 147.66 9.51996 151.17 8.82996L153.21 11.5C151.35 11.86 149.13 12.13 146.82 12.31V13.81H153.27V16.57H146.82V17.8H152.79V27.85H146.82V29.23H152.79V31.93H146.82V33.28Z" fill="#B65A0F"/>
<path d="M94.83 20.38H122.43V24.25H94.83V20.38Z" fill="#B65A0F"/>
<path d="M68.7 14.4999H67.02V25.5399H68.7V14.4999ZM71.37 28.7799H67.02V31.5999H64.38V11.2299H71.37V28.7799ZM76.77 23.9799H78.48C78.48 22.7499 78.51 21.3999 78.51 19.8699H76.95C76.95 21.1299 76.89 22.5099 76.77 23.9799ZM76.95 12.9099V16.8699H78.54L78.57 12.9099H76.95ZM72.21 9.90995H81.45C81.45 9.90995 81.45 11.0799 81.42 11.4399C81.3 27.9399 81.3 33.5199 80.55 34.8999C80.01 35.8599 79.5 36.1899 78.69 36.3699C77.91 36.5499 77.04 36.5499 75.96 36.5199C75.93 35.5899 75.63 34.2699 75.18 33.3999C75.96 33.4599 76.65 33.4599 77.1 33.4599C77.49 33.4899 77.7 33.3399 77.91 32.8299C78.18 32.3199 78.33 30.6699 78.42 26.9799H76.35C75.72 30.4599 74.52 34.0299 72.15 36.6699C71.76 36.0699 70.65 34.9299 70.08 34.5399C72 32.3499 72.99 29.6799 73.53 26.9799H72.18V23.9799H73.95C74.07 22.5399 74.1 21.1599 74.1 19.8699H72.21V16.8699H74.1V12.9099H72.21V9.90995ZM89.04 9.81995L91.23 11.0499C90.54 14.0199 89.64 18.0399 88.92 20.6199C90.45 23.2299 90.72 25.5699 90.75 27.6099C90.75 29.6799 90.36 31.0299 89.52 31.7199C89.16 32.0499 88.62 32.2599 87.99 32.3499C87.57 32.4099 87.03 32.4399 86.46 32.4399C86.46 31.5699 86.28 30.3399 85.83 29.4699H86.76C87 29.4699 87.24 29.3799 87.45 29.1699C87.72 28.8699 87.84 28.1199 87.84 27.0999C87.84 25.4199 87.63 23.2899 86.25 20.8899C86.76 18.6099 87.39 15.1599 87.78 12.7899H85.59V36.6399H82.68V9.90995H88.62L89.04 9.81995Z" fill="#B65A0F"/>
<path d="M52.98 13.63V12.13H39.24V13.63H52.98ZM52.98 17.5V15.97H39.24V17.5H52.98ZM56.61 9.60999V20.02H35.79V9.60999H56.61ZM48.33 29.83V32.74C49.11 32.8 49.92 32.83 50.73 32.83C52.41 32.83 58.17 32.83 60.3 32.74C59.82 33.55 59.28 35.11 59.1 36.13H50.55C45.06 36.13 41.34 35.38 38.82 31.9C37.74 33.88 36.36 35.47 34.62 36.67C34.11 36.01 32.73 34.69 31.92 34.18C34.98 32.29 36.81 29.11 37.5 25.09L41.07 25.63C40.86 26.59 40.62 27.49 40.38 28.36C41.31 30.4 42.78 31.51 44.7 32.11V24.49H33V21.34H59.46V24.49H48.33V26.74H57.57V29.83H48.33Z" fill="#B65A0F"/>
<path d="M7.17 8.70996L10.56 9.75996C9.78 11.83 8.82 13.93 7.71 15.91V36.55H4.29V21.22C3.63 22.12 2.94 22.93 2.28 23.65C1.95 22.75 0.960001 20.8 0.360001 19.93C3.06 17.23 5.67 12.97 7.17 8.70996ZM12.72 21.94L16.2 22.66C15.33 26.47 13.8 30.25 12.12 32.68C11.43 32.11 9.93 31.21 9.06 30.76C10.77 28.66 12.03 25.27 12.72 21.94ZM25.2 17.26H21.18V32.62C21.18 34.33 20.88 35.32 19.8 35.92C18.75 36.49 17.31 36.64 15.39 36.64C15.24 35.59 14.7 34 14.16 33.04C15.42 33.07 16.68 33.07 17.1 33.07C17.49 33.07 17.64 32.95 17.64 32.56V17.26H14.16C13.32 19 12.33 20.59 11.34 21.85C10.71 21.22 9.27 20.05 8.46 19.51C10.74 16.96 12.54 12.82 13.56 8.70996L17.04 9.48996C16.65 11.02 16.17 12.49 15.63 13.96H25.95L26.52 13.84L29.04 14.32C28.68 16.75 28.17 19.54 27.75 21.28L24.72 20.77C24.87 19.84 25.05 18.58 25.2 17.26ZM22.26 22.72L25.44 21.64C27 24.73 28.29 28.72 28.71 31.42L25.29 32.59C24.96 29.92 23.7 25.81 22.26 22.72Z" fill="#B65A0F"/>
<ellipse cx="14.2785" cy="8.45316" rx="14.2785" ry="8.45316" transform="matrix(-0.77313 -0.634248 -0.634248 0.77313 236.866 32.554)" fill="#F3BD13"/>
<ellipse cx="182.401" cy="30.0332" rx="14.2785" ry="8.45316" transform="rotate(-39.3642 182.401 30.0332)" fill="#F3BD13"/>
<g filter="url(#filter0_d_857_51)">
<path d="M208.944 15.1608C210.656 12.0063 214.477 10.6586 217.789 12.0412L222.364 13.9511C225.676 15.3337 227.405 18.9981 226.366 22.4333L222.501 35.2096C221.301 39.177 216.934 41.2371 213.109 39.6404L206.032 36.6862C202.207 35.0895 200.601 30.536 202.578 26.8928L208.944 15.1608Z" fill="#F3BD13"/>
</g>
<g filter="url(#filter1_d_857_51)">
<path d="M193.922 15.1608C192.21 12.0063 188.389 10.6586 185.077 12.0412L180.502 13.9511C177.19 15.3337 175.461 18.9981 176.501 22.4333L180.365 35.2096C181.565 39.177 185.932 41.2371 189.757 39.6404L196.834 36.6862C200.659 35.0895 202.265 30.536 200.288 26.8928L193.922 15.1608Z" fill="#F3BD13"/>
</g>
<g filter="url(#filter2_d_857_51)">
<path d="M190.069 12.6747C189.669 8.56211 192.901 5 197.033 5H205.865C209.997 5 213.229 8.56211 212.828 12.6747L210.693 34.597C210.344 38.1814 207.331 40.9152 203.73 40.9152H199.168C195.567 40.9152 192.554 38.1814 192.204 34.597L190.069 12.6747Z" fill="#F3BD13"/>
</g>
<path d="M188.376 20.7222C188.376 19.6974 189.206 18.8666 190.231 18.8666H194.399C195.424 18.8666 196.254 19.6974 196.254 20.7222V22.9681C196.254 25.1438 194.491 26.9075 192.315 26.9075C190.139 26.9075 188.376 25.1438 188.376 22.9681V20.7222Z" fill="#FFEDB2"/>
<path d="M206.654 20.7222C206.654 19.6974 207.485 18.8666 208.51 18.8666H212.677C213.702 18.8666 214.533 19.6974 214.533 20.7222V22.9681C214.533 25.1438 212.769 26.9075 210.594 26.9075C208.418 26.9075 206.654 25.1438 206.654 22.9681V20.7222Z" fill="#FFEDB2"/>
<defs>
<filter id="filter0_d_857_51" x="197.065" y="6.83581" width="34.2664" height="38.0116" filterUnits="userSpaceOnUse" color-interpolation-filters="sRGB">
<feFlood flood-opacity="0" result="BackgroundImageFix"/>
<feColorMatrix in="SourceAlpha" type="matrix" values="0 0 0 0 0 0 0 0 0 0 0 0 0 0 0 0 0 0 127 0" result="hardAlpha"/>
<feOffset/>
<feGaussianBlur stdDeviation="2.33216"/>
<feComposite in2="hardAlpha" operator="out"/>
<feColorMatrix type="matrix" values="0 0 0 0 1 0 0 0 0 1 0 0 0 0 1 0 0 0 0.1 0"/>
<feBlend mode="normal" in2="BackgroundImageFix" result="effect1_dropShadow_857_51"/>
<feBlend mode="normal" in="SourceGraphic" in2="effect1_dropShadow_857_51" result="shape"/>
</filter>
<filter id="filter1_d_857_51" x="171.535" y="6.83581" width="34.2664" height="38.0116" filterUnits="userSpaceOnUse" color-interpolation-filters="sRGB">
<feFlood flood-opacity="0" result="BackgroundImageFix"/>
<feColorMatrix in="SourceAlpha" type="matrix" values="0 0 0 0 0 0 0 0 0 0 0 0 0 0 0 0 0 0 127 0" result="hardAlpha"/>
<feOffset/>
<feGaussianBlur stdDeviation="2.33216"/>
<feComposite in2="hardAlpha" operator="out"/>
<feColorMatrix type="matrix" values="0 0 0 0 1 0 0 0 0 1 0 0 0 0 1 0 0 0 0.1 0"/>
<feBlend mode="normal" in2="BackgroundImageFix" result="effect1_dropShadow_857_51"/>
<feBlend mode="normal" in="SourceGraphic" in2="effect1_dropShadow_857_51" result="shape"/>
</filter>
<filter id="filter2_d_857_51" x="185.371" y="0.335684" width="32.1552" height="45.2439" filterUnits="userSpaceOnUse" color-interpolation-filters="sRGB">
<feFlood flood-opacity="0" result="BackgroundImageFix"/>
<feColorMatrix in="SourceAlpha" type="matrix" values="0 0 0 0 0 0 0 0 0 0 0 0 0 0 0 0 0 0 127 0" result="hardAlpha"/>
<feOffset/>
<feGaussianBlur stdDeviation="2.33216"/>
<feComposite in2="hardAlpha" operator="out"/>
<feColorMatrix type="matrix" values="0 0 0 0 1 0 0 0 0 1 0 0 0 0 1 0 0 0 0.1 0"/>
<feBlend mode="normal" in2="BackgroundImageFix" result="effect1_dropShadow_857_51"/>
<feBlend mode="normal" in="SourceGraphic" in2="effect1_dropShadow_857_51" result="shape"/>
</filter>
</defs>
</svg>
